/* XPM */
static char * i2p_messenger_xpm[] = {
"32 32 401 2",
"  	c None",
". 	c #454E89",
"+ 	c #36448C",
"@ 	c #222E7E",
"# 	c #161C6C",
"$ 	c #1C216B",
"% 	c #323973",
"& 	c #888585",
"* 	c #8B8A9B",
"= 	c #3B4E95",
"- 	c #617BBB",
"; 	c #5974B8",
"> 	c #334D9C",
", 	c #1A2679",
"' 	c #12196D",
") 	c #293E90",
"! 	c #223078",
"~ 	c #757377",
"{ 	c #475A9C",
"] 	c #6D8CCA",
"^ 	c #F7F9FD",
"/ 	c #88A4D7",
"( 	c #3854A2",
"_ 	c #182276",
": 	c #10176A",
"< 	c #1F2E80",
"[ 	c #2F4697",
"} 	c #37467D",
"| 	c #435DA9",
"1 	c #5174BD",
"2 	c #688CCF",
"3 	c #3E5EAD",
"4 	c #233384",
"5 	c #0F1568",
"6 	c #0D1267",
"7 	c #182174",
"8 	c #223384",
"9 	c #2C4492",
"0 	c #73727B",
"a 	c #61658B",
"b 	c #2E4094",
"c 	c #2C4192",
"d 	c #2A3E90",
"e 	c #1C287C",
"f 	c #0F1569",
"g 	c #0D1367",
"h 	c #0E1569",
"i 	c #14207A",
"j 	c #23358C",
"k 	c #363B53",
"l 	c #4A4E7E",
"m 	c #182374",
"n 	c #0F1468",
"o 	c #0E1468",
"p 	c #0D1266",
"q 	c #0D1468",
"r 	c #0E1367",
"s 	c #101971",
"t 	c #142482",
"u 	c #162A8D",
"v 	c #162E98",
"w 	c #232C56",
"x 	c #4C4F7A",
"y 	c #10176D",
"z 	c #111D78",
"A 	c #15288B",
"B 	c #18319B",
"C 	c #1B39AA",
"D 	c #1C3EB2",
"E 	c #26335C",
"F 	c #6D6D88",
"G 	c #0D1369",
"H 	c #111B74",
"I 	c #15288A",
"J 	c #1A35A2",
"K 	c #1D3FB4",
"L 	c #2149C4",
"M 	c #224ECF",
"N 	c #363F5D",
"O 	c #0E1466",
"P 	c #0B1264",
"Q 	c #0E156A",
"R 	c #142585",
"S 	c #19339E",
"T 	c #1E40B4",
"U 	c #224CCB",
"V 	c #2657DC",
"W 	c #2759D4",
"X 	c #5B6070",
"Y 	c #26327C",
"Z 	c #172075",
"` 	c #111D77",
" .	c #162B91",
"..	c #1C3CAC",
"+.	c #214CC9",
"@.	c #285BDF",
"#.	c #336AE5",
"$.	c #3263C7",
"%.	c #7E8083",
"&.	c #292E72",
"*.	c #273A8B",
"=.	c #1C2879",
"-.	c #122383",
";.	c #1E43B8",
">.	c #2452D5",
",.	c #2E65E5",
"'.	c #3E78E9",
").	c #3D65B0",
"!.	c #444464",
"~.	c #283E91",
"{.	c #25388E",
"].	c #21348D",
"^.	c #1A36A0",
"/.	c #1F45BE",
"(.	c #2758D8",
"_.	c #356CE5",
":.	c #4581ED",
"<.	c #33425E",
"[.	c #2D346B",
"}.	c #263A8B",
"|.	c #20338D",
"1.	c #1F45BD",
"2.	c #2658DD",
"3.	c #366EE9",
"4.	c #214280",
"5.	c #7B7873",
"6.	c #646480",
"7.	c #141E73",
"8.	c #1A2D8A",
"9.	c #18319C",
"0.	c #1E42B8",
"a.	c #2454D8",
"b.	c #3360CF",
"c.	c #313549",
"d.	c #77768C",
"e.	c #090E63",
"f.	c #1B277E",
"g.	c #213794",
"h.	c #2A4AB5",
"i.	c #506EC4",
"j.	c #11186B",
"k.	c #464653",
"l.	c #585B84",
"m.	c #111F7D",
"n.	c #172684",
"o.	c #2C3E97",
"p.	c #3C4FA2",
"q.	c #162583",
"r.	c #12207E",
"s.	c #383B56",
"t.	c #B0ADA8",
"u.	c #42467A",
"v.	c #2B3887",
"w.	c #1B369F",
"x.	c #1F3EA9",
"y.	c #203FAB",
"z.	c #2242AF",
"A.	c #2142AE",
"B.	c #2243B0",
"C.	c #162B88",
"D.	c #242D75",
"E.	c #3D4066",
"F.	c #A29E91",
"G.	c #666687",
"H.	c #0D1469",
"I.	c #0D156D",
"J.	c #152787",
"K.	c #1A34A0",
"L.	c #274DBF",
"M.	c #2E5FD1",
"N.	c #2F5FD2",
"O.	c #2F60D2",
"P.	c #2D5DD0",
"Q.	c #1F41B2",
"R.	c #162B90",
"S.	c #132483",
"T.	c #0F1B7A",
"U.	c #10196C",
"V.	c #5F617A",
"W.	c #373D79",
"X.	c #27368A",
"Y.	c #12207A",
"Z.	c #12207D",
"`.	c #13217F",
" +	c #152788",
".+	c #1B38A9",
"++	c #244BBE",
"@+	c #3869D5",
"#+	c #3769D4",
"$+	c #2044B7",
"%+	c #1A37A3",
"&+	c #182F99",
"*+	c #15298A",
"=+	c #142788",
"-+	c #101F7F",
";+	c #1C2676",
">+	c #292C60",
",+	c #A5A197",
"'+	c #2E3A80",
")+	c #7B92CF",
"!+	c #7194D2",
"~+	c #2D4CA7",
"{+	c #172E95",
"]+	c #172E96",
"^+	c #1933A0",
"/+	c #1B38A8",
"(+	c #1D3EB1",
"_+	c #1D3FB3",
":+	c #1C3CAE",
"<+	c #1C3BAC",
"[+	c #1A37A5",
"}+	c #19339F",
"|+	c #193296",
"1+	c #162C90",
"2+	c #162B8F",
"3+	c #12268D",
"4+	c #1D2254",
"5+	c #38519C",
"6+	c #7DA3DF",
"7+	c #5B7FCF",
"8+	c #2E50B1",
"9+	c #2545AC",
"0+	c #2649B6",
"a+	c #2448BA",
"b+	c #2247BC",
"c+	c #2046C1",
"d+	c #2047C2",
"e+	c #2147C2",
"f+	c #2148C2",
"g+	c #2148C3",
"h+	c #1F44BC",
"i+	c #1F42B7",
"j+	c #1D3FB2",
"k+	c #1A37A2",
"l+	c #1A36A3",
"m+	c #19349E",
"n+	c #1B266F",
"o+	c #203694",
"p+	c #3053B2",
"q+	c #2D50B6",
"r+	c #2E52B9",
"s+	c #2C55C3",
"t+	c #2D57C7",
"u+	c #2D5ACD",
"v+	c #3060D8",
"w+	c #2F62DC",
"x+	c #3063DC",
"y+	c #2D5FDE",
"z+	c #2B5DDE",
"A+	c #2757D9",
"B+	c #2655D8",
"C+	c #2554D7",
"D+	c #2450D0",
"E+	c #224ECE",
"F+	c #224BC8",
"G+	c #1F44BB",
"H+	c #1E42B6",
"I+	c #1D3CAE",
"J+	c #182A80",
"K+	c #7B7D96",
"L+	c #152D98",
"M+	c #1A39AA",
"N+	c #2F58C1",
"O+	c #5388E0",
"P+	c #4E88E5",
"Q+	c #4B86E7",
"R+	c #447EE6",
"S+	c #3B76EA",
"T+	c #336EEA",
"U+	c #3671E9",
"V+	c #3873E9",
"W+	c #3570E9",
"X+	c #346FEA",
"Y+	c #3069E8",
"Z+	c #2B61E4",
"`+	c #295EE1",
" @	c #2659DE",
".@	c #2555D9",
"+@	c #2451D3",
"@@	c #204BC5",
"#@	c #2047C1",
"$@	c #17339A",
"%@	c #6E6C73",
"&@	c #646990",
"*@	c #1939AC",
"=@	c #1E42B7",
"-@	c #2E58BC",
";@	c #5694F0",
">@	c #5995ED",
",@	c #5997F0",
"'@	c #5896F0",
")@	c #528FEB",
"!@	c #508DEB",
"~@	c #518EEB",
"{@	c #5390EB",
"]@	c #4D8AEB",
"^@	c #4C89EA",
"/@	c #447FE9",
"(@	c #3972E7",
"_@	c #3168E5",
":@	c #2C62E4",
"<@	c #204BC6",
"[@	c #2351D2",
"}@	c #1C40B6",
"|@	c #4F5060",
"1@	c #49518A",
"2@	c #1D42B9",
"3@	c #1C3AAB",
"4@	c #254AB2",
"5@	c #5E9CF1",
"6@	c #5895ED",
"7@	c #528FEC",
"8@	c #4B87EA",
"9@	c #4985EA",
"0@	c #4B88EA",
"a@	c #4783E9",
"b@	c #4682E9",
"c@	c #3E75DF",
"d@	c #152B93",
"e@	c #1E41B7",
"f@	c #234FD2",
"g@	c #2F354F",
"h@	c #273584",
"i@	c #1935A1",
"j@	c #1938A0",
"k@	c #4881E8",
"l@	c #457FE8",
"m@	c #4681E9",
"n@	c #4884E9",
"o@	c #4883E9",
"p@	c #4580E8",
"q@	c #437DE9",
"r@	c #2E59CC",
"s@	c #152A8C",
"t@	c #162A8E",
"u@	c #172E97",
"v@	c #141D4F",
"w@	c #393C61",
"x@	c #142B94",
"y@	c #1C3AAC",
"z@	c #1B3DAA",
"A@	c #2857D4",
"B@	c #3F79E8",
"C@	c #407AE8",
"D@	c #427CE8",
"E@	c #437DE8",
"F@	c #447EE9",
"G@	c #3E76E3",
"H@	c #2248C0",
"I@	c #163295",
"J@	c #11217F",
"K@	c #151732",
"L@	c #292842",
"M@	c #161F5D",
"N@	c #090D4F",
"O@	c #193AA9",
"P@	c #2959D6",
"Q@	c #3C76E6",
"R@	c #407BEB",
"S@	c #407BEA",
"T@	c #417CE9",
"U@	c #417BE8",
"V@	c #417CE8",
"W@	c #427CE9",
"X@	c #3F7BEB",
"Y@	c #3B74E8",
"Z@	c #224DCC",
"`@	c #17349D",
" #	c #04073E",
".#	c #131645",
"+#	c #211F31",
"@#	c #8D8A86",
"##	c #7D7B7C",
"$#	c #52515C",
"%#	c #282B4A",
"&#	c #0A174D",
"*#	c #182B77",
"=#	c #254BA2",
"-#	c #3160C2",
";#	c #386CD6",
">#	c #3B71E0",
",#	c #3C71E0",
"'#	c #396EDC",
")#	c #3668D0",
"!#	c #2A54B0",
"~#	c #163386",
"{#	c #081657",
"]#	c #171B40",
"^#	c #43424C",
"/#	c #737277",
"(#	c #A19E97",
"_#	c #75726D",
":#	c #555151",
"<#	c #3A393D",
"[#	c #28262E",
"}#	c #28262D",
"|#	c #25242E",
"1#	c #302E31",
"2#	c #4B4748",
"3#	c #676560",
"4#	c #918E88",
"                                                                ",
"                          . + @ # $ % &                         ",
"                      * = - ; > , ' ) ! ~                       ",
"                      { ] ^ / ( _ : < [ }                       ",
"                      | 1 2 3 4 5 6 7 8 9 0                     ",
"                    a b c d e f g g h i j k                     ",
"                    l m n o p q r s t u v w                     ",
"                    x y g g o p z A B C D E                     ",
"                    F G g g g H I J K L M N                     ",
"                      O P g Q R S T U V W X                     ",
"                      Y Z : `  ...+.@.#.$.%.                    ",
"                      &.*.=.-.B ;.>.,.'.).                      ",
"                      !.~.{.].^./.(._.:.<.                      ",
"                        [.}.|.^.1.2.3.4.5.                      ",
"                        6.7.8.9.0.a.b.c.                        ",
"                        d.e.f.g.h.i.j.k.                        ",
"                        l.m.n.o.p.q.r.s.                        ",
"                  t.u.v.w.x.y.z.A.B.y.C.D.E.F.                  ",
"                G.H.I.J.K.L.M.N.O.P.Q.R.S.T.U.V.                ",
"            W.X.Y.Z.`. +B .+++@+#+$+%+&+R.*+=+-+;+>+,+          ",
"          '+)+!+~+{+]+B ^+/+(+D D _+:+<+[+}+|+1+2+3+4+          ",
"          5+6+7+8+9+0+0+a+b+c+d+e+f+g+f+h+i+j+k+l+m+n+          ",
"          o+p+q+r+s+t+u+v+w+x+y+z+A+B+C+D+E+F+G+H+I+J+          ",
"        K+L+M+N+O+P+Q+R+S+T+U+V+W+X+Y+Z+`+ @.@+@@@#@$@%@        ",
"        &@*@=@-@;@>@,@'@)@!@~@{@{@)@]@^@/@(@_@:@<@[@}@|@        ",
"        1@2@3@4@5@6@7@8@9@9@9@0@0@9@9@9@9@a@b@c@d@e@f@g@        ",
"        h@{+i@j@k@a@b@l@m@n@n@o@o@n@n@n@l@p@q@r@s@t@u@v@        ",
"        w@x@y@z@A@B@C@D@E@F@/@m@m@/@F@E@D@C@G@H@I@9.J@K@        ",
"          L@M@N@O@P@Q@R@S@T@U@U@U@U@V@W@X@Y@Z@`@ #.#+#@#        ",
"              ##$#%#&#*#=#-#;#>#,#'#)#!#~#{#]#^#/#              ",
"                    (#_#:#<#[#}#|#[#1#2#3#4#                    ",
"                                                                "};
